<mxfile host="www.draw.io" modified="2020-01-17T12:09:06.256Z" agent="Mozilla/5.0 (Windows NT 10.0; Win64; x64) AppleWebKit/537.36 (KHTML, like Gecko) Chrome/79.0.3945.117 Safari/537.36" etag="75UqnIWRN7ezeLxCKsfi" version="12.5.5" type="github">
  <diagram id="CyaSoa7KwjpoHzu_7nh0" name="Page-1">
    <mxGraphModel dx="1406" dy="685" grid="1" gridSize="10" guides="1" tooltips="1" connect="1" arrows="1" fold="1" page="1" pageScale="1" pageWidth="827" pageHeight="1169" math="0" shadow="0">
      <root>
        <mxCell id="0"/>
        <mxCell id="1" parent="0"/>
        <mxCell id="yrLDoxOuE4Vq6cpKQ8Pf-1" value="&lt;p style=&quot;margin: 0px ; margin-top: 4px ; text-align: center&quot;&gt;&lt;b&gt;/IBS/CLFM_DEC_ALV_BTN_CONTROL&lt;/b&gt;&lt;/p&gt;&lt;hr size=&quot;1&quot;&gt;&lt;p style=&quot;margin: 0px ; margin-left: 4px&quot;&gt;# TAB_UI_ELEMENTS&lt;/p&gt;&lt;hr size=&quot;1&quot;&gt;&lt;p style=&quot;margin: 0px ; margin-left: 4px&quot;&gt;&lt;span&gt;+ modify_buttons( im_actual_step_state : /wav/e_decision_step_status&lt;/span&gt;&lt;br&gt;&lt;/p&gt;&lt;p style=&quot;margin: 0px ; margin-left: 4px&quot;&gt;&amp;nbsp; &amp;nbsp; &amp;nbsp; &amp;nbsp; &amp;nbsp; &amp;nbsp; &amp;nbsp; &amp;nbsp; &amp;nbsp; &amp;nbsp; &amp;nbsp; &amp;nbsp; &amp;nbsp; &amp;nbsp; &amp;nbsp; im_tab_selected_dec :&amp;nbsp;/wav/ty_decision_reason&lt;span&gt;&amp;nbsp;)&lt;/span&gt;&lt;/p&gt;&lt;p style=&quot;margin: 0px ; margin-left: 4px&quot;&gt;# load_ui_elements()&lt;span&gt;&lt;br&gt;&lt;/span&gt;&lt;/p&gt;&lt;p style=&quot;margin: 0px ; margin-left: 4px&quot;&gt;# modify_btn_approve ()&lt;/p&gt;&lt;p style=&quot;margin: 0px ; margin-left: 4px&quot;&gt;# modify_btn_decline()&lt;/p&gt;&lt;p style=&quot;margin: 0px ; margin-left: 4px&quot;&gt;# modify_btn_add()&lt;/p&gt;&lt;p style=&quot;margin: 0px ; margin-left: 4px&quot;&gt;# modify_btn_remove()&lt;/p&gt;&lt;p style=&quot;margin: 0px ; margin-left: 4px&quot;&gt;# modify_btn_take_back()&lt;/p&gt;&lt;p style=&quot;margin: 0px ; margin-left: 4px&quot;&gt;# modify_btn_escalate()&lt;/p&gt;" style="verticalAlign=top;align=left;overflow=fill;fontSize=12;fontFamily=Helvetica;html=1;" parent="1" vertex="1">
          <mxGeometry x="220" y="110" width="430" height="200" as="geometry"/>
        </mxCell>
        <mxCell id="yrLDoxOuE4Vq6cpKQ8Pf-3" value="/IBS/CL_DEC_OVERVIEW_VIEW" style="swimlane;fontStyle=1;align=center;verticalAlign=top;childLayout=stackLayout;horizontal=1;startSize=26;horizontalStack=0;resizeParent=1;resizeParentMax=0;resizeLast=0;collapsible=1;marginBottom=0;" parent="1" vertex="1">
          <mxGeometry x="90" y="380" width="420" height="260" as="geometry"/>
        </mxCell>
        <mxCell id="yrLDoxOuE4Vq6cpKQ8Pf-4" value="# _obj_controller&#xa;# _obj_editor&#xa;# _obj_dec_available_handler&#xa;# _obj_dec_selected_handler&#xa;# _tab_dynpro_text" style="text;strokeColor=none;fillColor=none;align=left;verticalAlign=top;spacingLeft=4;spacingRight=4;overflow=hidden;rotatable=0;points=[[0,0.5],[1,0.5]];portConstraint=eastwest;" parent="yrLDoxOuE4Vq6cpKQ8Pf-3" vertex="1">
          <mxGeometry y="26" width="420" height="74" as="geometry"/>
        </mxCell>
        <mxCell id="yrLDoxOuE4Vq6cpKQ8Pf-5" value="" style="line;strokeWidth=1;fillColor=none;align=left;verticalAlign=middle;spacingTop=-1;spacingLeft=3;spacingRight=3;rotatable=0;labelPosition=right;points=[];portConstraint=eastwest;" parent="yrLDoxOuE4Vq6cpKQ8Pf-3" vertex="1">
          <mxGeometry y="100" width="420" height="8" as="geometry"/>
        </mxCell>
        <mxCell id="yrLDoxOuE4Vq6cpKQ8Pf-6" value="+ pbo()&#xa;+ pai()Â &#xa;# build_ui_components()&#xa;# refresh_ui()&#xa;# fill_ui_texts()&#xa;# fill_existing_entry()&#xa;# hide_actual_status()&#xa;&#xa;" style="text;strokeColor=none;fillColor=none;align=left;verticalAlign=top;spacingLeft=4;spacingRight=4;overflow=hidden;rotatable=0;points=[[0,0.5],[1,0.5]];portConstraint=eastwest;" parent="yrLDoxOuE4Vq6cpKQ8Pf-3" vertex="1">
          <mxGeometry y="108" width="420" height="152" as="geometry"/>
        </mxCell>
        <mxCell id="yrLDoxOuE4Vq6cpKQ8Pf-11" value="/IBS/CLFM_DEC_AVAILABLE" style="swimlane;fontStyle=1;align=center;verticalAlign=top;childLayout=stackLayout;horizontal=1;startSize=26;horizontalStack=0;resizeParent=1;resizeParentMax=0;resizeLast=0;collapsible=1;marginBottom=0;" parent="1" vertex="1">
          <mxGeometry x="790" y="650" width="330" height="290" as="geometry"/>
        </mxCell>
        <mxCell id="yrLDoxOuE4Vq6cpKQ8Pf-12" value="# _obj_cont_available&#xa;# _obj_evt_rec_available_grid&#xa;# _tab_available_dec" style="text;strokeColor=none;fillColor=none;align=left;verticalAlign=top;spacingLeft=4;spacingRight=4;overflow=hidden;rotatable=0;points=[[0,0.5],[1,0.5]];portConstraint=eastwest;" parent="yrLDoxOuE4Vq6cpKQ8Pf-11" vertex="1">
          <mxGeometry y="26" width="330" height="54" as="geometry"/>
        </mxCell>
        <mxCell id="yrLDoxOuE4Vq6cpKQ8Pf-13" value="" style="line;strokeWidth=1;fillColor=none;align=left;verticalAlign=middle;spacingTop=-1;spacingLeft=3;spacingRight=3;rotatable=0;labelPosition=right;points=[];portConstraint=eastwest;" parent="yrLDoxOuE4Vq6cpKQ8Pf-11" vertex="1">
          <mxGeometry y="80" width="330" height="8" as="geometry"/>
        </mxCell>
        <mxCell id="yrLDoxOuE4Vq6cpKQ8Pf-14" value="+pbo()&#xa;+ pia()&#xa;+ get_alv_grid_available()&#xa;+ get_available_grid_data()&#xa;# build_available_alv_grid()&#xa;# refresh_available_alv_grid()&#xa;# exclude_alv_grid_buttons()&#xa;# fill_alv_available_decision()&#xa;# det_alv_grid_fieldcat()&#xa;# det_category_from_sel_alv_grid()&#xa;&#xa;" style="text;strokeColor=none;fillColor=none;align=left;verticalAlign=top;spacingLeft=4;spacingRight=4;overflow=hidden;rotatable=0;points=[[0,0.5],[1,0.5]];portConstraint=eastwest;" parent="yrLDoxOuE4Vq6cpKQ8Pf-11" vertex="1">
          <mxGeometry y="88" width="330" height="202" as="geometry"/>
        </mxCell>
        <mxCell id="yrLDoxOuE4Vq6cpKQ8Pf-15" value="/IBS/CLFM_DEC_UI_ELEMENTS" style="swimlane;fontStyle=1;align=center;verticalAlign=top;childLayout=stackLayout;horizontal=1;startSize=26;horizontalStack=0;resizeParent=1;resizeParentMax=0;resizeLast=0;collapsible=1;marginBottom=0;" parent="1" vertex="1">
          <mxGeometry x="880" y="110" width="200" height="100" as="geometry"/>
        </mxCell>
        <mxCell id="yrLDoxOuE4Vq6cpKQ8Pf-17" value="" style="line;strokeWidth=1;fillColor=none;align=left;verticalAlign=middle;spacingTop=-1;spacingLeft=3;spacingRight=3;rotatable=0;labelPosition=right;points=[];portConstraint=eastwest;" parent="yrLDoxOuE4Vq6cpKQ8Pf-15" vertex="1">
          <mxGeometry y="26" width="200" height="8" as="geometry"/>
        </mxCell>
        <mxCell id="yrLDoxOuE4Vq6cpKQ8Pf-18" value="+ load_ui_elements()&#xa;+ write_ui_elements()&#xa;+ init_ui_elements()" style="text;strokeColor=none;fillColor=none;align=left;verticalAlign=top;spacingLeft=4;spacingRight=4;overflow=hidden;rotatable=0;points=[[0,0.5],[1,0.5]];portConstraint=eastwest;" parent="yrLDoxOuE4Vq6cpKQ8Pf-15" vertex="1">
          <mxGeometry y="34" width="200" height="66" as="geometry"/>
        </mxCell>
        <mxCell id="yrLDoxOuE4Vq6cpKQ8Pf-20" value="/IBS/CLFM_DEC_SELECTED" style="swimlane;fontStyle=1;align=center;verticalAlign=top;childLayout=stackLayout;horizontal=1;startSize=26;horizontalStack=0;resizeParent=1;resizeParentMax=0;resizeLast=0;collapsible=1;marginBottom=0;" parent="1" vertex="1">
          <mxGeometry x="790" y="332" width="330" height="310" as="geometry"/>
        </mxCell>
        <mxCell id="yrLDoxOuE4Vq6cpKQ8Pf-21" value="# _obj_cont_selected&#xa;# _obj_evt_rec_selected_grid&#xa;# _tab_selected_dec" style="text;strokeColor=none;fillColor=none;align=left;verticalAlign=top;spacingLeft=4;spacingRight=4;overflow=hidden;rotatable=0;points=[[0,0.5],[1,0.5]];portConstraint=eastwest;" parent="yrLDoxOuE4Vq6cpKQ8Pf-20" vertex="1">
          <mxGeometry y="26" width="330" height="64" as="geometry"/>
        </mxCell>
        <mxCell id="yrLDoxOuE4Vq6cpKQ8Pf-22" value="" style="line;strokeWidth=1;fillColor=none;align=left;verticalAlign=middle;spacingTop=-1;spacingLeft=3;spacingRight=3;rotatable=0;labelPosition=right;points=[];portConstraint=eastwest;" parent="yrLDoxOuE4Vq6cpKQ8Pf-20" vertex="1">
          <mxGeometry y="90" width="330" height="8" as="geometry"/>
        </mxCell>
        <mxCell id="yrLDoxOuE4Vq6cpKQ8Pf-23" value="+pbo ()&#xa;+ pai()&#xa;+ get_selected_grid_data()&#xa;+ get_selected_grid()&#xa;+ get_det_gategory_from_sel_alv_grid()&#xa;+ get_det_rsn_id_from_sel_alv_grid()&#xa;# build_selected_alv_grid()&#xa;# refresh_selected_alv_grid()&#xa;# add_entry_to_selected_grid()&#xa;# remove_from_selected_grid()&#xa;# exclude_alv_grid_buttons()&#xa;# add_decision_to_selected_grid()&#xa;# get_alv_grid_selected()&#xa;" style="text;strokeColor=none;fillColor=none;align=left;verticalAlign=top;spacingLeft=4;spacingRight=4;overflow=hidden;rotatable=0;points=[[0,0.5],[1,0.5]];portConstraint=eastwest;" parent="yrLDoxOuE4Vq6cpKQ8Pf-20" vertex="1">
          <mxGeometry y="98" width="330" height="212" as="geometry"/>
        </mxCell>
        <mxCell id="yrLDoxOuE4Vq6cpKQ8Pf-24" value="/IBS/CLFM_DEC_EDITOR_VIEW" style="swimlane;fontStyle=1;align=center;verticalAlign=top;childLayout=stackLayout;horizontal=1;startSize=26;horizontalStack=0;resizeParent=1;resizeParentMax=0;resizeLast=0;collapsible=1;marginBottom=0;" parent="1" vertex="1">
          <mxGeometry x="240" y="800" width="260" height="140" as="geometry"/>
        </mxCell>
        <mxCell id="yrLDoxOuE4Vq6cpKQ8Pf-25" value="# obj_editor TYPE REF TO cl_gui_textedit" style="text;strokeColor=none;fillColor=none;align=left;verticalAlign=top;spacingLeft=4;spacingRight=4;overflow=hidden;rotatable=0;points=[[0,0.5],[1,0.5]];portConstraint=eastwest;" parent="yrLDoxOuE4Vq6cpKQ8Pf-24" vertex="1">
          <mxGeometry y="26" width="260" height="26" as="geometry"/>
        </mxCell>
        <mxCell id="yrLDoxOuE4Vq6cpKQ8Pf-26" value="" style="line;strokeWidth=1;fillColor=none;align=left;verticalAlign=middle;spacingTop=-1;spacingLeft=3;spacingRight=3;rotatable=0;labelPosition=right;points=[];portConstraint=eastwest;" parent="yrLDoxOuE4Vq6cpKQ8Pf-24" vertex="1">
          <mxGeometry y="52" width="260" height="8" as="geometry"/>
        </mxCell>
        <mxCell id="yrLDoxOuE4Vq6cpKQ8Pf-27" value="+ build_editor()&#xa;+ init_actual_text_field()&#xa;+ disable_enable_editor()&#xa;+ get_data_from_editor()" style="text;strokeColor=none;fillColor=none;align=left;verticalAlign=top;spacingLeft=4;spacingRight=4;overflow=hidden;rotatable=0;points=[[0,0.5],[1,0.5]];portConstraint=eastwest;" parent="yrLDoxOuE4Vq6cpKQ8Pf-24" vertex="1">
          <mxGeometry y="60" width="260" height="80" as="geometry"/>
        </mxCell>
        <mxCell id="hM9hQYc2Sxk-mMZmewNJ-1" value="" style="endArrow=classic;html=1;exitX=1.002;exitY=0.204;exitDx=0;exitDy=0;exitPerimeter=0;" edge="1" parent="1" source="yrLDoxOuE4Vq6cpKQ8Pf-6">
          <mxGeometry width="50" height="50" relative="1" as="geometry">
            <mxPoint x="90" y="1010" as="sourcePoint"/>
            <mxPoint x="790" y="520" as="targetPoint"/>
            <Array as="points">
              <mxPoint x="790" y="520"/>
            </Array>
          </mxGeometry>
        </mxCell>
        <mxCell id="hM9hQYc2Sxk-mMZmewNJ-2" value="" style="endArrow=classic;html=1;" edge="1" parent="1" source="yrLDoxOuE4Vq6cpKQ8Pf-6">
          <mxGeometry width="50" height="50" relative="1" as="geometry">
            <mxPoint x="520.8399999999999" y="529.008" as="sourcePoint"/>
            <mxPoint x="790" y="750" as="targetPoint"/>
            <Array as="points">
              <mxPoint x="790" y="750"/>
            </Array>
          </mxGeometry>
        </mxCell>
        <mxCell id="hM9hQYc2Sxk-mMZmewNJ-3" value="" style="endArrow=classic;html=1;exitX=0.598;exitY=0.999;exitDx=0;exitDy=0;exitPerimeter=0;" edge="1" parent="1" source="yrLDoxOuE4Vq6cpKQ8Pf-6">
          <mxGeometry width="50" height="50" relative="1" as="geometry">
            <mxPoint x="90" y="1010" as="sourcePoint"/>
            <mxPoint x="340" y="790" as="targetPoint"/>
          </mxGeometry>
        </mxCell>
        <mxCell id="hM9hQYc2Sxk-mMZmewNJ-4" value="" style="endArrow=classic;html=1;" edge="1" parent="1" source="yrLDoxOuE4Vq6cpKQ8Pf-3" target="yrLDoxOuE4Vq6cpKQ8Pf-1">
          <mxGeometry width="50" height="50" relative="1" as="geometry">
            <mxPoint x="90" y="1010" as="sourcePoint"/>
            <mxPoint x="140" y="960" as="targetPoint"/>
          </mxGeometry>
        </mxCell>
        <mxCell id="hM9hQYc2Sxk-mMZmewNJ-5" value="" style="endArrow=classic;html=1;entryX=0.01;entryY=0.833;entryDx=0;entryDy=0;entryPerimeter=0;exitX=0.998;exitY=0.441;exitDx=0;exitDy=0;exitPerimeter=0;" edge="1" parent="1" source="yrLDoxOuE4Vq6cpKQ8Pf-1" target="yrLDoxOuE4Vq6cpKQ8Pf-18">
          <mxGeometry width="50" height="50" relative="1" as="geometry">
            <mxPoint x="510" y="430" as="sourcePoint"/>
            <mxPoint x="700" y="330" as="targetPoint"/>
          </mxGeometry>
        </mxCell>
      </root>
    </mxGraphModel>
  </diagram>
</mxfile>
